<svg xmlns="http://www.w3.org/2000/svg" width="760" height="760" viewBox="0 0 760 760">
  <rect width="760" height="760" fill="#f4f7fb"/>
  <rect x="35" y="45" width="690" height="670" rx="18" fill="#ffffff" stroke="#d8e0eb" stroke-width="2"/>
  <text x="70" y="105" font-family="Arial, sans-serif" font-size="25" font-weight="700" fill="#17233c">Synthetic Portfolio — Account ****1234</text>
  <text x="70" y="145" font-family="Arial, sans-serif" font-size="15" fill="#56657a">As of 2026-09-11 20:00 +08:00 · Base currency USD · Page 1 of 1</text>
  <line x1="70" y1="185" x2="690" y2="185" stroke="#d8e0eb" stroke-width="2"/>
  <text x="85" y="230" font-family="Arial, sans-serif" font-size="18" font-weight="700" fill="#33425a">Ticker</text>
  <text x="260" y="230" font-family="Arial, sans-serif" font-size="18" font-weight="700" fill="#33425a">Market</text>
  <text x="405" y="230" font-family="Arial, sans-serif" font-size="18" font-weight="700" fill="#33425a">Quantity</text>
  <text x="565" y="230" font-family="Arial, sans-serif" font-size="18" font-weight="700" fill="#33425a">Avg cost</text>
  <g font-family="Arial, sans-serif" font-size="22" fill="#17233c">
    <text x="85" y="290">AAPL</text><text x="260" y="290">US</text><text x="405" y="290">12</text><text x="565" y="290">181.25</text>
    <text x="85" y="350">MSFT</text><text x="260" y="350">US</text><text x="405" y="350">8</text><text x="565" y="350">392.10</text>
    <text x="85" y="410">NVDA</text><text x="260" y="410">US</text><text x="405" y="410">20</text><text x="565" y="410">118.40</text>
    <text x="85" y="470">AMZN</text><text x="260" y="470">US</text><text x="405" y="470">6</text><text x="565" y="470">176.80</text>
    <text x="85" y="530">GOOGL</text><text x="260" y="530">US</text><text x="405" y="530">10</text><text x="565" y="530">164.30</text>
  </g>
  <g stroke="#edf1f6" stroke-width="2">
    <line x1="70" y1="255" x2="690" y2="255"/><line x1="70" y1="315" x2="690" y2="315"/>
    <line x1="70" y1="375" x2="690" y2="375"/><line x1="70" y1="435" x2="690" y2="435"/>
    <line x1="70" y1="495" x2="690" y2="495"/><line x1="70" y1="555" x2="690" y2="555"/>
  </g>
  <text x="85" y="625" font-family="Arial, sans-serif" font-size="22" font-weight="700" fill="#33425a">Cash</text>
  <rect x="250" y="592" width="220" height="48" rx="6" fill="#fff7e6" stroke="#f2c66d"/>
  <text x="270" y="624" font-family="Arial, sans-serif" font-size="19" fill="#8a5a00">Not shown</text>
  <text x="70" y="685" font-family="Arial, sans-serif" font-size="13" fill="#7f8da3">SYNTHETIC TEST DATA — NOT A REAL BROKER ACCOUNT</text>
</svg>
